<svg xmlns="http://www.w3.org/2000/svg" xmlns:xlink="http://www.w3.org/1999/xlink" width="500" zoomAndPan="magnify" viewBox="0 0 375 374.999991" height="500" preserveAspectRatio="xMidYMid meet" version="1.0"><defs><g/></defs><rect x="-37.5" width="450" fill="#ffffff" y="-37.499999" height="449.999989" fill-opacity="1"/><rect x="-37.5" width="450" fill="#ffffff" y="-37.499999" height="449.999989" fill-opacity="1"/><path fill="#7db4e8" d="M 26.671875 196.601562 C 26.671875 196.601562 26.605469 196.773438 26.496094 197.089844 C 25.804688 199.019531 23.421875 206.496094 24.511719 214.476562 C 24.511719 214.476562 24.867188 218.804688 31.914062 216.558594 C 39.207031 214.222656 44.617188 212.605469 48.304688 208.828125 C 51.992188 205.054688 26.671875 196.601562 26.671875 196.601562 Z M 26.671875 196.601562 " fill-opacity="1" fill-rule="nonzero"/><path stroke-linecap="round" transform="matrix(0.740375, 0, 0, 0.738849, 10.384162, 137.220637)" fill="none" stroke-linejoin="round" d="M 67.758386 60.680976 C 67.758386 60.940036 67.716177 61.204384 67.621209 61.458157 C 67.531516 61.717217 67.394339 61.965703 67.214953 62.208903 C 67.035568 62.452102 66.81925 62.684728 66.560724 62.901492 C 66.296922 63.118257 66.001464 63.324448 65.669073 63.509491 C 65.341959 63.694534 64.977912 63.858429 64.592761 64.006463 C 64.202333 64.149211 63.790802 64.276097 63.358167 64.376549 C 62.925531 64.477001 62.482344 64.551018 62.023328 64.603888 C 61.564312 64.656757 61.100021 64.677905 60.630453 64.677905 C 60.160885 64.677905 59.696593 64.656757 59.237578 64.603888 C 58.778562 64.551018 58.335375 64.477001 57.902739 64.376549 C 57.470104 64.276097 57.058572 64.149211 56.668145 64.006463 C 56.277718 63.858429 55.918947 63.694534 55.586557 63.509491 C 55.259442 63.324448 54.963984 63.118257 54.700182 62.901492 C 54.441656 62.684728 54.220062 62.452102 54.040676 62.208903 C 53.861291 61.965703 53.72939 61.717217 53.634421 61.458157 C 53.544728 61.204384 53.50252 60.940036 53.50252 60.680976 C 53.50252 60.416629 53.544728 60.157569 53.634421 59.898509 C 53.72939 59.639449 53.861291 59.390962 54.040676 59.147763 C 54.220062 58.904563 54.441656 58.677225 54.700182 58.455173 C 54.963984 58.238409 55.259442 58.037505 55.586557 57.852462 C 55.918947 57.667419 56.277718 57.498237 56.668145 57.355489 C 57.058572 57.207455 57.470104 57.085855 57.902739 56.985403 C 58.335375 56.884951 58.778562 56.805647 59.237578 56.758065 C 59.696593 56.705195 60.160885 56.678761 60.630453 56.678761 C 61.100021 56.678761 61.564312 56.705195 62.023328 56.758065 C 62.482344 56.805647 62.925531 56.884951 63.358167 56.985403 C 63.790802 57.085855 64.202333 57.207455 64.592761 57.355489 C 64.977912 57.498237 65.341959 57.667419 65.669073 57.852462 C 66.001464 58.037505 66.296922 58.238409 66.560724 58.455173 C 66.81925 58.677225 67.035568 58.904563 67.214953 59.147763 C 67.394339 59.390962 67.531516 59.639449 67.621209 59.898509 C 67.716177 60.157569 67.758386 60.416629 67.758386 60.680976 Z M 67.758386 60.680976 " stroke="#231f20" stroke-width="2.5" stroke-opacity="1" stroke-miterlimit="4"/><path fill="#dfe3e8" d="M 117.589844 200.910156 C 114.628906 202.476562 111.253906 204.152344 107.351562 205.949219 C 103.308594 207.792969 99.152344 209.328125 94.882812 210.558594 C 88.042969 212.515625 81.070312 213.679688 73.96875 214.0625 C 55.191406 215.09375 37.828125 210.367188 28.0625 201.796875 C 24.640625 198.8125 21.628906 195.453125 19.039062 191.722656 C 16.449219 187.992188 14.351562 184.003906 12.753906 179.757812 L 20.898438 169.210938 L 106.039062 185.46875 Z M 117.589844 200.910156 " fill-opacity="1" fill-rule="nonzero"/><path fill="#7db4e8" d="M 157.503906 189.953125 C 146.242188 197.804688 135.433594 188.695312 135.433594 188.695312 C 135.433594 188.695312 131.730469 193.375 117.589844 200.910156 C 103.523438 206.082031 92.484375 205.410156 92.484375 205.410156 C 93.578125 206.996094 94.378906 208.722656 94.882812 210.582031 C 96.601562 216.660156 95.066406 222.957031 94.210938 225.707031 C 94.144531 225.90625 94.046875 226.089844 93.914062 226.253906 C 93.785156 226.421875 93.625 226.558594 93.445312 226.664062 C 93.261719 226.773438 93.066406 226.84375 92.859375 226.878906 C 92.648438 226.914062 92.441406 226.914062 92.234375 226.871094 C 82.429688 224.90625 77.019531 219.582031 73.96875 214.0625 C 72.707031 211.6875 71.761719 209.199219 71.128906 206.589844 C 70.492188 203.980469 70.191406 201.332031 70.222656 198.648438 C 65.039062 195.953125 44.375 181.394531 34.105469 178.160156 C 23.984375 174.992188 13.0625 179.617188 12.753906 179.757812 C 9.644531 171.089844 9.519531 162.601562 12.9375 156.519531 C 19.425781 145.015625 38.164062 143.574219 53.660156 145.191406 C 57.4375 145.652344 61.152344 146.410156 64.808594 147.46875 C 68.082031 144.011719 77.019531 136.480469 92.210938 137.289062 C 110.71875 138.300781 93.039062 143.9375 92.210938 157.878906 C 99.339844 161.253906 105.730469 164.847656 110.066406 168.023438 C 122.3125 177.007812 131.140625 177.007812 131.140625 177.007812 C 133.035156 167.574219 140.238281 162.230469 144.828125 159.75 C 149.417969 157.265625 158.488281 157.570312 154.832031 161.1875 C 152.433594 163.523438 150.464844 166.175781 148.929688 169.144531 C 147.390625 172.113281 146.363281 175.25 145.84375 178.550781 C 147.324219 180.769531 151.335938 184.070312 155.824219 186.363281 C 159.480469 188.246094 157.503906 189.953125 157.503906 189.953125 Z M 157.503906 189.953125 " fill-opacity="1" fill-rule="nonzero"/><path fill="#143f65" d="M 74.730469 192.523438 C 74.554688 192.527344 74.394531 192.476562 74.257812 192.367188 C 74.074219 192.242188 73.960938 192.066406 73.921875 191.847656 C 73.882812 191.628906 73.929688 191.429688 74.054688 191.246094 C 79.386719 183.855469 75.539062 179.238281 75.539062 179.195312 C 75.390625 179.023438 75.328125 178.824219 75.347656 178.601562 C 75.367188 178.378906 75.460938 178.195312 75.632812 178.050781 C 75.804688 177.90625 76 177.84375 76.222656 177.859375 C 76.445312 177.878906 76.628906 177.972656 76.773438 178.144531 C 76.964844 178.375 81.4375 183.828125 75.375 192.183594 C 75.21875 192.40625 75.003906 192.519531 74.730469 192.523438 Z M 74.730469 192.523438 " fill-opacity="1" fill-rule="nonzero"/><path fill="#143f65" d="M 81.199219 192.632812 C 81.027344 192.636719 80.867188 192.585938 80.726562 192.488281 C 80.546875 192.355469 80.4375 192.179688 80.402344 191.960938 C 80.363281 191.738281 80.410156 191.539062 80.542969 191.355469 C 81.085938 190.597656 81.515625 189.78125 81.835938 188.90625 C 82.152344 188.03125 82.347656 187.128906 82.421875 186.199219 C 82.496094 185.269531 82.441406 184.347656 82.265625 183.433594 C 82.085938 182.519531 81.789062 181.644531 81.371094 180.8125 C 81.261719 180.617188 81.238281 180.414062 81.296875 180.199219 C 81.355469 179.984375 81.484375 179.824219 81.679688 179.714844 C 81.871094 179.605469 82.078125 179.582031 82.292969 179.640625 C 82.507812 179.699219 82.667969 179.828125 82.777344 180.023438 C 83.277344 180.988281 83.636719 182.003906 83.855469 183.070312 C 84.074219 184.136719 84.144531 185.214844 84.0625 186.300781 C 83.980469 187.382812 83.753906 188.4375 83.378906 189.460938 C 83.003906 190.484375 82.5 191.433594 81.859375 192.316406 C 81.695312 192.535156 81.476562 192.640625 81.199219 192.632812 Z M 81.199219 192.632812 " fill-opacity="1" fill-rule="nonzero"/><path fill="#143f65" d="M 48.46875 178.277344 C 48.46875 178.675781 48.394531 179.0625 48.238281 179.429688 C 48.085938 179.796875 47.867188 180.121094 47.585938 180.40625 C 47.304688 180.6875 46.976562 180.902344 46.609375 181.058594 C 46.238281 181.210938 45.855469 181.285156 45.457031 181.285156 C 45.054688 181.285156 44.671875 181.210938 44.300781 181.058594 C 43.933594 180.902344 43.609375 180.6875 43.324219 180.40625 C 43.042969 180.121094 42.824219 179.796875 42.671875 179.429688 C 42.519531 179.0625 42.441406 178.675781 42.441406 178.277344 C 42.441406 177.878906 42.519531 177.496094 42.671875 177.128906 C 42.824219 176.757812 43.042969 176.433594 43.324219 176.152344 C 43.609375 175.871094 43.933594 175.652344 44.300781 175.5 C 44.671875 175.347656 45.054688 175.269531 45.457031 175.269531 C 45.855469 175.269531 46.238281 175.347656 46.609375 175.5 C 46.976562 175.652344 47.304688 175.871094 47.585938 176.152344 C 47.867188 176.433594 48.085938 176.757812 48.238281 177.128906 C 48.394531 177.496094 48.46875 177.878906 48.46875 178.277344 Z M 48.46875 178.277344 " fill-opacity="1" fill-rule="nonzero"/><path fill="#143f65" d="M 33.335938 189.839844 C 32.394531 189.851562 31.480469 189.691406 30.601562 189.359375 C 29.71875 189.027344 28.929688 188.546875 28.226562 187.921875 C 28.066406 187.730469 27.992188 187.515625 28 187.269531 C 28.011719 187.019531 28.105469 186.808594 28.28125 186.636719 C 28.457031 186.460938 28.667969 186.371094 28.914062 186.359375 C 29.164062 186.351562 29.378906 186.429688 29.566406 186.589844 C 29.96875 186.933594 30.410156 187.214844 30.890625 187.4375 C 31.367188 187.664062 31.867188 187.820312 32.386719 187.910156 C 32.910156 188 33.433594 188.019531 33.960938 187.972656 C 34.484375 187.921875 34.996094 187.804688 35.492188 187.617188 C 38.613281 186.648438 39.050781 184.328125 39.066406 184.234375 C 39.109375 183.976562 39.238281 183.777344 39.445312 183.625 C 39.65625 183.472656 39.890625 183.417969 40.148438 183.457031 C 40.390625 183.503906 40.585938 183.628906 40.730469 183.832031 C 40.875 184.035156 40.929688 184.261719 40.894531 184.507812 C 40.894531 184.65625 40.308594 188.074219 36.007812 189.40625 C 35.140625 189.683594 34.25 189.828125 33.335938 189.839844 Z M 33.335938 189.839844 " fill-opacity="1" fill-rule="nonzero"/><g fill="#000000" fill-opacity="1"><g transform="translate(194.592165, 197.999987)"><g><path d="M 14.5625 -33.59375 C 16.34375 -33.59375 18.085938 -33.332031 19.796875 -32.8125 C 21.503906 -32.300781 22.769531 -31.789062 23.59375 -31.28125 L 24.796875 -30.484375 L 21.765625 -24.484375 C 21.523438 -24.640625 21.191406 -24.84375 20.765625 -25.09375 C 20.335938 -25.351562 19.535156 -25.695312 18.359375 -26.125 C 17.179688 -26.550781 16.085938 -26.765625 15.078125 -26.765625 C 13.828125 -26.765625 12.859375 -26.492188 12.171875 -25.953125 C 11.492188 -25.421875 11.15625 -24.703125 11.15625 -23.796875 C 11.15625 -23.347656 11.316406 -22.925781 11.640625 -22.53125 C 11.960938 -22.144531 12.507812 -21.734375 13.28125 -21.296875 C 14.050781 -20.859375 14.726562 -20.503906 15.3125 -20.234375 C 15.90625 -19.972656 16.816406 -19.578125 18.046875 -19.046875 C 20.171875 -18.140625 21.988281 -16.90625 23.5 -15.34375 C 25.007812 -13.78125 25.765625 -12.015625 25.765625 -10.046875 C 25.765625 -8.148438 25.421875 -6.492188 24.734375 -5.078125 C 24.054688 -3.660156 23.125 -2.550781 21.9375 -1.75 C 20.75 -0.957031 19.4375 -0.367188 18 0.015625 C 16.5625 0.398438 15 0.59375 13.3125 0.59375 C 11.875 0.59375 10.460938 0.445312 9.078125 0.15625 C 7.691406 -0.132812 6.53125 -0.5 5.59375 -0.9375 C 4.664062 -1.375 3.828125 -1.804688 3.078125 -2.234375 C 2.328125 -2.660156 1.78125 -3.019531 1.4375 -3.3125 L 0.921875 -3.765625 L 4.6875 -10.078125 C 5 -9.816406 5.4375 -9.476562 6 -9.0625 C 6.5625 -8.644531 7.554688 -8.085938 8.984375 -7.390625 C 10.410156 -6.703125 11.671875 -6.359375 12.765625 -6.359375 C 15.929688 -6.359375 17.515625 -7.4375 17.515625 -9.59375 C 17.515625 -10.050781 17.398438 -10.472656 17.171875 -10.859375 C 16.953125 -11.242188 16.554688 -11.628906 15.984375 -12.015625 C 15.410156 -12.398438 14.898438 -12.707031 14.453125 -12.9375 C 14.015625 -13.164062 13.296875 -13.515625 12.296875 -13.984375 C 11.296875 -14.453125 10.554688 -14.804688 10.078125 -15.046875 C 8.078125 -16.023438 6.53125 -17.253906 5.4375 -18.734375 C 4.34375 -20.210938 3.796875 -21.804688 3.796875 -23.515625 C 3.796875 -26.472656 4.890625 -28.890625 7.078125 -30.765625 C 9.265625 -32.648438 11.757812 -33.59375 14.5625 -33.59375 Z M 14.5625 -33.59375 "/></g></g></g><g fill="#000000" fill-opacity="1"><g transform="translate(221.469494, 197.999987)"><g><path d="M 2.40625 0 L 2.40625 -34.40625 L 9.484375 -34.40625 L 9.484375 -18.359375 L 9.5625 -18.359375 C 11.394531 -20.203125 13.351562 -21.125 15.4375 -21.125 C 16.445312 -21.125 17.453125 -20.988281 18.453125 -20.71875 C 19.453125 -20.445312 20.410156 -20.03125 21.328125 -19.46875 C 22.253906 -18.914062 23.003906 -18.125 23.578125 -17.09375 C 24.148438 -16.070312 24.4375 -14.878906 24.4375 -13.515625 L 24.4375 0 L 17.359375 0 L 17.359375 -11.59375 C 17.359375 -12.664062 17.015625 -13.597656 16.328125 -14.390625 C 15.648438 -15.191406 14.769531 -15.59375 13.6875 -15.59375 C 12.613281 -15.59375 11.644531 -15.179688 10.78125 -14.359375 C 9.914062 -13.535156 9.484375 -12.613281 9.484375 -11.59375 L 9.484375 0 Z M 2.40625 0 "/></g></g></g><g fill="#000000" fill-opacity="1"><g transform="translate(247.906866, 197.999987)"><g><path d="M 3.796875 -2.546875 C 1.878906 -4.640625 0.921875 -7.203125 0.921875 -10.234375 C 0.921875 -13.273438 1.878906 -15.847656 3.796875 -17.953125 C 5.722656 -20.066406 8.164062 -21.125 11.125 -21.125 C 13.84375 -21.125 16.082031 -20.269531 17.84375 -18.5625 L 17.84375 -20.515625 L 24.921875 -20.515625 L 24.921875 0 L 17.921875 0 L 17.921875 -2.3125 L 17.84375 -2.3125 C 16.082031 -0.375 13.84375 0.59375 11.125 0.59375 C 8.164062 0.59375 5.722656 -0.453125 3.796875 -2.546875 Z M 9.8125 -13.71875 C 8.894531 -12.8125 8.4375 -11.648438 8.4375 -10.234375 C 8.4375 -8.828125 8.875 -7.675781 9.75 -6.78125 C 10.632812 -5.882812 11.796875 -5.4375 13.234375 -5.4375 C 14.617188 -5.4375 15.757812 -5.890625 16.65625 -6.796875 C 17.550781 -7.703125 18 -8.847656 18 -10.234375 C 18 -11.648438 17.535156 -12.8125 16.609375 -13.71875 C 15.691406 -14.625 14.566406 -15.078125 13.234375 -15.078125 C 11.878906 -15.078125 10.738281 -14.625 9.8125 -13.71875 Z M 9.8125 -13.71875 "/></g></g></g><g fill="#000000" fill-opacity="1"><g transform="translate(275.224151, 197.999987)"><g><path d="M 2.40625 0 L 2.40625 -20.515625 L 9.484375 -20.515625 L 9.484375 -17.5625 L 9.5625 -17.5625 C 9.613281 -17.664062 9.695312 -17.796875 9.8125 -17.953125 C 9.9375 -18.117188 10.195312 -18.398438 10.59375 -18.796875 C 11 -19.203125 11.425781 -19.5625 11.875 -19.875 C 12.332031 -20.195312 12.921875 -20.484375 13.640625 -20.734375 C 14.359375 -20.992188 15.09375 -21.125 15.84375 -21.125 C 16.613281 -21.125 17.367188 -21.015625 18.109375 -20.796875 C 18.859375 -20.585938 19.410156 -20.375 19.765625 -20.15625 L 20.3125 -19.84375 L 17.359375 -13.84375 C 16.484375 -14.582031 15.257812 -14.953125 13.6875 -14.953125 C 12.832031 -14.953125 12.097656 -14.765625 11.484375 -14.390625 C 10.867188 -14.023438 10.429688 -13.570312 10.171875 -13.03125 C 9.921875 -12.5 9.742188 -12.046875 9.640625 -11.671875 C 9.535156 -11.304688 9.484375 -11.015625 9.484375 -10.796875 L 9.484375 0 Z M 2.40625 0 "/></g></g></g><g fill="#000000" fill-opacity="1"><g transform="translate(295.142169, 197.999987)"><g><path d="M 25.84375 -20.515625 L 16.078125 -10.71875 L 26.796875 0 L 17.6875 0 L 9.484375 -8.203125 L 9.484375 0 L 2.40625 0 L 2.40625 -34.40625 L 9.484375 -34.40625 L 9.484375 -13.359375 L 16.640625 -20.515625 Z M 25.84375 -20.515625 "/></g></g></g><g fill="#000000" fill-opacity="1"><g transform="translate(320.979596, 197.999987)"><g><path d="M 17.953125 -20.515625 L 26.125 -20.515625 L 10 10.40625 L 1.84375 10.40625 L 8.921875 -3.203125 L -0.796875 -20.515625 L 7.359375 -20.515625 L 13.078125 -10 Z M 17.953125 -20.515625 "/></g></g></g></svg>